<?xml version="1.0" encoding="UTF-8"?>
<svg xmlns="http://www.w3.org/2000/svg" width="250px" height="250px" viewBox="0 0 125 125">
	<title>NYCS Bullet, Standard Set - 2 Local</title>
	<circle cx="62.5" cy="62.5" r="50" fill="#EE352E"/>
	<path d="M79.6,87.2v-8.3H58.4l9.2-7.4c3.533-3.067,6.167-5.967,7.9-8.7c2.2-3.467,3.3-7.2,3.3-11.2c0-4.8-1.483-8.633-4.45-11.5s-6.85-4.3-11.65-4.3c-11.667,0-17.5,6.6-17.5,19.8l9.5,0.7c0-7.533,2.3-11.3,6.9-11.3c4.267,0,6.4,2.467,6.4,7.4c0,4.6-2.867,9.767-8.6,15.5c-4.267,4.333-9,8.033-14.2,11.1v8.2H79.6z" fill="#FFF"/>
</svg>
