<?xml version="1.0" encoding="UTF-8"?>
<svg xmlns="http://www.w3.org/2000/svg" width="250px" height="250px" viewBox="0 0 125 125">
	<title>NYCS Bullet, Standard Set - 5 Local</title>
	<circle cx="62.5" cy="62.5" r="50" fill="#00933C"/>
	<path d="M81.2,70c0-5-1.3-9.067-3.9-12.2c-2.933-3.467-6.967-5.2-12.1-5.2c-3.2,0-6.067,1.067-8.6,3.2l1.4-9.6h19.3l1-9.2H49.9l-3.6,28l9,0.7c1.333-3.2,3.633-4.8,6.9-4.8c5.467,0,8.2,3.067,8.2,9.2c0,2.8-0.6,5.1-1.8,6.9c-1.4,2.067-3.467,3.1-6.2,3.1c-2.067,0-3.733-0.733-5-2.2c-1.267-1.467-1.933-3.3-2-5.5l-10.8,0.8c0.267,5,2.1,8.833,5.5,11.5c3.133,2.467,7.2,3.7,12.2,3.7c5.467,0,9.983-1.65,13.55-4.95C79.417,80.15,81.2,75.667,81.2,70z" fill="#FFF"/>
</svg>
